<?xml version="1.0" encoding="iso-8859-1"?>
<!-- Generator: Adobe Illustrator 19.0.0, SVG Export Plug-In . SVG Version: 6.00 Build 0)  -->
<svg version="1.1" id="Layer_1" xmlns="http://www.w3.org/2000/svg" xmlns:xlink="http://www.w3.org/1999/xlink" x="0px" y="0px"
     viewBox="0 0 512 512" style="enable-background:new 0 0 512 512;" xml:space="preserve">
<path style="fill:#FEBBA0;" d="M298.136,319.118v20.353c0,6.799,4.088,12.932,10.365,15.549l67.241,28.017
	c14.206,5.92,23.459,22.008,23.459,37.397v81.092H112.849v-81.092c0-15.389,9.254-31.479,23.459-37.397l67.241-28.017
	c6.277-2.615,10.365-8.749,10.365-15.549v-20.353H298.136z"/>
    <path style="fill:#89CD38;" d="M136.308,383.036l67.241-28.017c5.2-2.166,8.889-6.749,10.005-12.124
	c8.884,14.064,24.556,23.413,42.42,23.413c17.916,0,33.629-9.403,42.498-23.535c1.084,5.427,4.789,10.063,10.029,12.247
	l67.241,28.017c14.206,5.92,23.459,22.008,23.459,37.397v81.092H112.849v-81.092C112.849,405.045,122.104,388.955,136.308,383.036z"
    />
    <polygon style="fill:#FFA036;" points="315.579,357.99 315.579,430.764 196.472,430.764 196.472,357.948 156.248,374.707
	156.248,501.525 355.803,501.525 355.803,374.75 "/>
    <path style="fill:#FEBBA0;" d="M161.994,199.163V168.72c0-51.83,42.017-93.848,93.848-93.848c51.831,0,93.848,42.017,93.848,93.848
	h0.368v30.443c12.925,0,23.403,10.478,23.403,23.403c0,12.925-10.478,23.403-23.403,23.403v17.472
	c-1.126,14.735-8.311,27.853-19.192,35.038l-56.575,32.343c-11.36,7.503-25.173,7.503-36.533,0l-56.404-32.343
	c-10.879-7.185-18.233-20.303-19.36-35.038V245.97c-12.925,0-23.403-10.478-23.403-23.403
	C138.591,209.64,149.069,199.163,161.994,199.163z"/>
    <path style="fill:#FFA036;" d="M140.936,143.182h6.441c1.741-27.258,13.421-52.623,33.137-71.753
	c14.55-14.118,32.371-23.75,51.698-28.198V27.806c0-2.311,1.665-4.184,3.721-4.184h40.182c2.055,0,3.721,1.873,3.721,4.184v14.988
	c20.091,4.232,38.636,14.037,53.683,28.636c19.715,19.13,31.397,44.496,33.137,71.753h4.457c2.055,0,3.72,1.665,3.72,3.721v20.835
	c0,2.055-1.665,3.721-3.72,3.721H140.936c-2.055,0-3.721-1.665-3.721-3.721v-20.835
	C137.216,144.848,138.881,143.182,140.936,143.182z"/>
    <path style="fill:#DEDDE1;" d="M501.501,343.653c0,7.083-5.795,12.878-12.878,12.878H403.63c-7.083,0-12.878-5.795-12.878-12.878
	v-64.756H501.5v64.756H501.501z"/>
    <rect x="390.753" y="278.897" style="fill:#1991E2;" width="110.748" height="31.213"/>
    <g>
	<path style="fill:#314967;" d="M431.929,357.576v81.517c0,8.045,6.582,14.627,14.627,14.627l0,0
		c8.045,0,14.627-6.582,14.627-14.627v-81.517"/>
        <path style="fill:#314967;" d="M55.374,261.559L55.374,261.559c9.194,0,16.717-7.523,16.717-16.717v-68.128
		c0-9.194-7.523-16.717-16.717-16.717l0,0c-9.194,0-16.717,7.523-16.717,16.717v68.128C38.657,254.037,46.18,261.559,55.374,261.559
		z"/>
</g>
    <path style="fill:#DEDDE1;" d="M100.3,111.902V55.399c0-24.709-20.217-44.926-44.926-44.926l0,0
	c-24.709,0-44.926,20.217-44.926,44.926v56.503C10.448,111.902,100.3,111.902,100.3,111.902z"/>
    <path d="M501.552,511.973h-0.137c-5.769,0-10.448-4.678-10.448-10.448c0-5.77,4.679-10.448,10.448-10.448h0.137
	c5.769,0,10.448,4.678,10.448,10.448C512,507.296,507.321,511.973,501.552,511.973z"/>
    <path d="M10.636,511.973h-0.137c-5.769,0-10.448-4.678-10.448-10.448c0-5.77,4.679-10.448,10.448-10.448h0.137
	c5.769,0,10.448,4.678,10.448,10.448C21.084,507.296,16.405,511.973,10.636,511.973z"/>
    <path d="M217.922,235.474c-6.439,0-11.678-5.239-11.678-11.678c0-6.44,5.239-11.679,11.678-11.679s11.679,5.239,11.679,11.679
	C229.601,230.235,224.361,235.474,217.922,235.474z"/>
    <path d="M294.129,235.474c-6.439,0-11.679-5.239-11.679-11.678c0-6.44,5.24-11.679,11.679-11.679s11.678,5.239,11.678,11.679
	C305.806,230.235,300.568,235.474,294.129,235.474z"/>
    <path d="M255.982,292.45c-11.39,0-20.657-9.267-20.657-20.658c0-5.77,4.679-10.448,10.448-10.448h20.419
	c5.769,0,10.448,4.678,10.448,10.448C276.639,283.182,267.372,292.45,255.982,292.45z"/>
    <path d="M256.162,441.213h-0.137c-5.769,0-10.448-4.678-10.448-10.448c0-5.77,4.679-10.448,10.448-10.448h0.137
	c5.769,0,10.448,4.678,10.448,10.448C266.61,436.535,261.932,441.213,256.162,441.213z"/>
    <path d="M256.026,441.213h-0.137c-5.769,0-10.448-4.678-10.448-10.448c0-5.77,4.679-10.448,10.448-10.448h0.137
	c5.769,0,10.448,4.678,10.448,10.448C266.474,436.535,261.795,441.213,256.026,441.213z"/>
    <path d="M467.614,491.077h-57.965v-70.644c0-20.364-12.291-39.708-29.888-47.042l-67.239-28.016
	c-2.392-0.997-3.937-3.314-3.937-5.904v-16.22l27.467-15.702c0.195-0.111,0.385-0.229,0.573-0.352
	c13.562-8.957,22.48-25.018,23.851-42.961c0.021-0.264,0.03-0.531,0.03-0.796v-8.674c13.568-4.413,23.402-17.181,23.402-32.202
	c0-15.021-9.835-27.788-23.402-32.202v-8.459h10.609c7.813,0,14.17-6.355,14.17-14.168v-20.835c0-6.024-3.779-11.182-9.092-13.228
	c-3.662-26.46-16.039-50.961-35.396-69.743c-14.277-13.853-31.602-23.88-50.511-29.301v-6.824c0-8.069-6.357-14.632-14.17-14.632
	h-40.182c-7.813,0-14.168,6.564-14.168,14.632v7.413c-18.133,5.545-34.776,15.37-48.526,28.713
	c-19.206,18.636-31.54,42.9-35.309,69.125c-6.374,1.382-11.164,7.066-11.164,13.848v20.835c0,7.813,6.357,14.168,14.169,14.168
	h10.609v8.459c-13.568,4.413-23.402,17.181-23.402,32.202s9.835,27.788,23.402,32.202v8.674c0,0.265,0.01,0.532,0.03,0.796
	c1.367,17.87,10.344,33.93,24.019,42.961c0.183,0.121,0.37,0.236,0.56,0.346l27.311,15.659v16.27c0,2.59-1.545,4.908-3.936,5.904
	l-67.241,28.016c-17.597,7.332-29.887,26.676-29.887,47.042v70.644H44.436c-5.769,0-10.448,4.678-10.448,10.448
	c0,5.77,4.679,10.448,10.448,10.448h423.178c5.769,0,10.448-4.678,10.448-10.448C478.062,495.757,473.384,491.077,467.614,491.077z
	 M147.664,153.626c5.383-0.145,9.796-4.374,10.141-9.778c1.573-24.628,12.222-47.683,29.987-64.92
	c9.802-9.511,21.374-16.857,33.976-21.635v77.18c0,5.77,4.679,10.448,10.448,10.448c5.769,0,10.448-4.678,10.448-10.448V34.068
	h26.727l0.167,100.404c0,5.77,4.679,10.448,10.448,10.448c5.769,0,10.448-4.678,10.448-10.448V56.63
	c13.302,4.744,25.502,12.314,35.792,22.297c17.765,17.238,28.413,40.294,29.987,64.92c0.301,4.723,3.71,8.549,8.157,9.534v7.628
	H147.664V153.626z M186.86,289.593c-7.976-5.401-13.469-15.527-14.418-26.574v-17.05c0-5.77-4.679-10.448-10.448-10.448
	c-7.143,0-12.954-5.812-12.954-12.954c0-7.142,5.812-12.954,12.954-12.954c5.769,0,10.448-4.678,10.448-10.448v-17.257h167.167
	v17.257c0,5.77,4.679,10.448,10.448,10.448c7.143,0,12.954,5.812,12.954,12.954c0,7.142-5.812,12.954-12.954,12.954
	c-5.769,0-10.448,4.678-10.448,10.448v17.052c-0.961,11.277-6.26,21.162-14.245,26.569l-56.259,32.162
	c-0.195,0.111-0.385,0.229-0.573,0.352c-7.834,5.173-17.184,5.173-25.018,0c-0.183-0.121-0.37-0.236-0.56-0.346L186.86,289.593z
	 M287.708,339.981c-7.49,9.995-19.115,15.88-31.734,15.88c-12.557,0-24.142-5.839-31.635-15.755
	c0.004-0.212,0.023-0.421,0.023-0.633v-4.288l7.931,4.547c7.335,4.765,15.533,7.148,23.731,7.148c8.196,0,16.392-2.382,23.725-7.144
	l7.939-4.539v4.274C287.688,339.642,287.705,339.81,287.708,339.981z M145.8,491.077h-22.502v-70.644
	c0-11.777,7.321-23.708,17.028-27.753l5.474-2.281V491.077z M345.355,491.077h-178.66V381.694l19.329-8.053v57.123
	c0,5.77,4.679,10.448,10.448,10.448h25.616c5.769,0,10.448-4.678,10.448-10.448c0-5.77-4.679-10.448-10.448-10.448H206.92v-55.382
	l0.647-0.27c2.583-1.076,4.932-2.516,7.004-4.242c11.08,10.408,25.752,16.334,41.403,16.334c15.685,0,30.372-5.942,41.455-16.379
	c2.084,1.746,4.45,3.202,7.053,4.288l0.647,0.27v55.382h-15.168c-5.769,0-10.448,4.678-10.448,10.448
	c0,5.77,4.679,10.448,10.448,10.448h25.616c5.769,0,10.448-4.678,10.448-10.448v-57.123l19.329,8.053v109.383H345.355z
	 M388.753,491.077h-22.502V390.4l5.472,2.28c9.709,4.045,17.03,15.977,17.03,27.753V491.077z"/>
    <path d="M501.501,268.449H390.753c-5.769,0-10.448,4.678-10.448,10.448v64.756c0,12.862,10.464,23.326,23.325,23.326h17.851v72.114
	c0,13.827,11.249,25.075,25.075,25.075s25.075-11.248,25.075-25.075v-72.114h16.993c12.862,0,23.325-10.464,23.325-23.326v-64.756
	C511.949,273.126,507.27,268.449,501.501,268.449z M491.053,289.345v10.317h-89.852v-10.317H491.053z M450.735,439.094
	c0,2.265-1.914,4.179-4.179,4.179s-4.179-1.914-4.179-4.179V366.98h8.358V439.094z M488.624,346.083H403.63
	c-1.317,0-2.429-1.113-2.429-2.43v-23.095h89.852v23.095C491.053,344.97,489.941,346.083,488.624,346.083z"/>
    <path d="M55.374,0.025C24.84,0.025,0,24.866,0,55.399v56.503c0,5.77,4.679,10.448,10.448,10.448h34.478v29.292
	c-9.807,4.102-16.717,13.794-16.717,25.072v68.128c0,14.978,12.185,27.165,27.165,27.165s27.165-12.186,27.165-27.165v-68.128
	c0-11.278-6.909-20.97-16.717-25.072V122.35H100.3c5.769,0,10.448-4.678,10.448-10.448V55.399
	C110.748,24.866,85.908,0.025,55.374,0.025z M61.643,244.843c0,3.398-2.871,6.269-6.269,6.269s-6.269-2.871-6.269-6.269v-68.128
	c0-3.398,2.871-6.269,6.269-6.269s6.269,2.871,6.269,6.269V244.843z M89.852,101.454h-24.03V85.927
	c0-5.77-4.679-10.448-10.448-10.448s-10.448,4.678-10.448,10.448v15.527h-24.03V55.399c0-19.011,15.467-34.478,34.478-34.478
	s34.478,15.467,34.478,34.478V101.454z"/>
    <path d="M292.73,485.507h-0.137c-5.769,0-10.448-4.678-10.448-10.448c0-5.77,4.679-10.448,10.448-10.448h0.137
	c5.769,0,10.448,4.678,10.448,10.448C303.178,480.829,298.5,485.507,292.73,485.507z"/>
    <path d="M258.792,485.506h-39.198c-5.769,0-10.448-4.678-10.448-10.448c0-5.77,4.679-10.448,10.448-10.448h39.199
	c5.769,0,10.448,4.678,10.448,10.448C269.241,480.828,264.563,485.506,258.792,485.506z"/>
    <g>
</g>
    <g>
</g>
    <g>
</g>
    <g>
</g>
    <g>
</g>
    <g>
</g>
    <g>
</g>
    <g>
</g>
    <g>
</g>
    <g>
</g>
    <g>
</g>
    <g>
</g>
    <g>
</g>
    <g>
</g>
    <g>
</g>
</svg>
