<?xml version="1.0" encoding="iso-8859-1"?>
<!-- Generator: Adobe Illustrator 19.0.0, SVG Export Plug-In . SVG Version: 6.00 Build 0)  -->
<svg version="1.1" id="Layer_1" xmlns="http://www.w3.org/2000/svg" xmlns:xlink="http://www.w3.org/1999/xlink" x="0px" y="0px"
     viewBox="0 0 512 512" style="enable-background:new 0 0 512 512;" xml:space="preserve">
<g>
	<g>
		<path d="M501.552,491.077h-0.137c-5.769,0-10.448,4.678-10.448,10.448s4.679,10.448,10.448,10.448h0.137
			c5.769,0,10.448-4.678,10.448-10.448S507.321,491.077,501.552,491.077z"/>
	</g>
</g>
    <g>
	<g>
		<path d="M10.636,491.077h-0.137c-5.769,0-10.448,4.678-10.448,10.448s4.679,10.448,10.448,10.448h0.137
			c5.769,0,10.448-4.678,10.448-10.448S16.405,491.077,10.636,491.077z"/>
	</g>
</g>
    <g>
	<g>
		<path d="M217.922,212.118c-6.439,0-11.678,5.239-11.678,11.679c0,6.439,5.239,11.678,11.678,11.678
			c6.439,0,11.679-5.239,11.679-11.678C229.601,217.356,224.361,212.118,217.922,212.118z"/>
	</g>
</g>
    <g>
	<g>
		<path d="M294.129,212.118c-6.439,0-11.679,5.239-11.679,11.679c0,6.439,5.24,11.678,11.679,11.678
			c6.439,0,11.677-5.239,11.678-11.678C305.807,217.356,300.568,212.118,294.129,212.118z"/>
	</g>
</g>
    <g>
	<g>
		<path d="M266.193,261.344h-20.419c-5.769,0-10.448,4.678-10.448,10.448c0,11.39,9.266,20.658,20.657,20.658
			c11.39,0,20.658-9.267,20.659-20.658C276.64,266.022,271.962,261.344,266.193,261.344z"/>
	</g>
</g>
    <g>
	<g>
		<path d="M256.162,420.317h-0.137c-5.769,0-10.448,4.678-10.448,10.448c0,5.77,4.679,10.448,10.448,10.448h0.137
			c5.769,0,10.448-4.677,10.448-10.448C266.61,424.994,261.932,420.317,256.162,420.317z"/>
	</g>
</g>
    <g>
	<g>
		<path d="M256.026,420.317h-0.137c-5.769,0-10.448,4.678-10.448,10.448c0,5.77,4.679,10.448,10.448,10.448h0.137
			c5.769,0,10.448-4.677,10.448-10.448C266.474,424.994,261.795,420.317,256.026,420.317z"/>
	</g>
</g>
    <g>
	<g>
		<path d="M467.614,491.077h-57.965v-70.644c0-20.364-12.291-39.708-29.888-47.042l-67.239-28.016
			c-2.392-0.997-3.937-3.314-3.937-5.904v-16.22l27.467-15.702c0.195-0.111,0.386-0.229,0.573-0.352
			c13.562-8.957,22.48-25.018,23.851-42.961c0.021-0.264,0.03-0.531,0.03-0.796v-8.674c13.568-4.413,23.402-17.181,23.402-32.202
			s-9.835-27.788-23.402-32.202v-8.459h10.609c7.813,0,14.169-6.356,14.169-14.168v-20.835c0-6.024-3.779-11.182-9.092-13.228
			c-3.662-26.46-16.039-50.961-35.396-69.743c-14.277-13.853-31.602-23.88-50.511-29.301v-6.824c0-8.069-6.357-14.632-14.169-14.632
			h-40.182c-7.813,0-14.168,6.564-14.168,14.632v7.413c-18.133,5.545-34.776,15.37-48.526,28.713
			c-19.206,18.636-31.54,42.9-35.309,69.125c-6.374,1.382-11.164,7.066-11.164,13.848v20.835c0,7.813,6.357,14.168,14.169,14.168
			h10.609v8.459c-13.568,4.413-23.402,17.181-23.402,32.202s9.835,27.788,23.402,32.202v8.674c0,0.265,0.01,0.532,0.03,0.796
			c1.367,17.87,10.344,33.93,24.019,42.961c0.183,0.121,0.37,0.236,0.56,0.346l27.311,15.659v16.27c0,2.59-1.545,4.908-3.936,5.904
			l-67.241,28.016c-17.597,7.332-29.887,26.676-29.887,47.042v70.644H44.436c-5.769,0-10.448,4.678-10.448,10.448
			s4.679,10.448,10.448,10.448h423.178c5.769,0,10.448-4.678,10.448-10.448S473.384,491.077,467.614,491.077z M147.664,161.01
			v-7.384c5.383-0.145,9.796-4.373,10.141-9.778c1.573-24.628,12.222-47.683,29.987-64.92c9.802-9.511,21.374-16.857,33.976-21.635
			v77.18c0,5.77,4.679,10.448,10.448,10.448s10.448-4.678,10.448-10.448V34.068h26.727l0.167,100.404
			c0,5.77,4.679,10.448,10.448,10.448s10.448-4.678,10.448-10.448V56.63c13.302,4.744,25.502,12.314,35.792,22.297
			c17.765,17.238,28.413,40.294,29.987,64.92c0.301,4.724,3.71,8.549,8.157,9.534v7.628H147.664z M186.86,289.593
			c-7.976-5.401-13.469-15.527-14.418-26.574v-17.05c0-5.77-4.679-10.448-10.448-10.448c-7.143,0-12.954-5.812-12.954-12.954
			s5.812-12.954,12.954-12.954c5.769,0,10.448-4.678,10.448-10.448v-17.257h167.167v17.257c0,5.77,4.679,10.448,10.448,10.448
			c7.143,0,12.954,5.812,12.954,12.954s-5.812,12.954-12.954,12.954c-5.769,0-10.448,4.678-10.448,10.448v17.052
			c-0.961,11.277-6.26,21.162-14.245,26.569l-56.259,32.162c-0.195,0.111-0.385,0.229-0.573,0.352
			c-7.834,5.173-17.184,5.173-25.018,0c-0.183-0.121-0.37-0.236-0.56-0.346L186.86,289.593z M287.708,339.98
			c-7.49,9.995-19.115,15.88-31.734,15.88c-12.557,0-24.142-5.839-31.635-15.755c0.004-0.212,0.023-0.421,0.023-0.633v-4.288
			l7.931,4.547c7.336,4.765,15.533,7.148,23.731,7.148c8.196,0,16.392-2.382,23.725-7.144l7.939-4.539v4.274
			C287.688,339.642,287.705,339.81,287.708,339.98z M145.8,491.077h-22.502v-70.644c0-11.777,7.321-23.708,17.028-27.753
			l5.474-2.281V491.077z M166.696,491.077V381.694l19.329-8.053v57.123c0,5.77,4.679,10.448,10.448,10.448h25.616
			c5.769,0,10.448-4.678,10.448-10.448s-4.679-10.448-10.448-10.448H206.92v-55.382l0.647-0.27c2.583-1.076,4.932-2.516,7.004-4.242
			c11.08,10.408,25.752,16.334,41.403,16.334c15.685,0,30.372-5.942,41.455-16.379c2.084,1.746,4.45,3.202,7.053,4.288l0.647,0.27
			v55.382h-15.168c-5.769,0-10.448,4.678-10.448,10.448c0,5.77,4.679,10.448,10.448,10.448h25.616
			c5.769,0,10.448-4.677,10.448-10.448v-57.123l19.329,8.053v109.383H166.696z M388.753,491.077h-22.502V390.4l5.472,2.28
			c9.709,4.045,17.03,15.977,17.03,27.753V491.077z"/>
	</g>
</g>
    <g>
	<g>
		<path d="M501.501,268.449H390.753c-5.769,0-10.448,4.678-10.448,10.448v64.756c0,12.862,10.464,23.326,23.325,23.326h17.851
			v72.114c0,13.827,11.249,25.075,25.075,25.075c13.826,0,25.075-11.248,25.075-25.075v-72.114h16.993
			c12.862,0,23.325-10.464,23.325-23.326v-64.756C511.949,273.126,507.27,268.449,501.501,268.449z M450.735,439.094
			c0,2.265-1.914,4.179-4.179,4.179c-2.265,0-4.179-1.914-4.179-4.179V366.98h8.358V439.094z M491.053,343.653
			c0,1.317-1.112,2.43-2.429,2.43H403.63c-1.317,0-2.429-1.113-2.429-2.43v-23.095h89.852V343.653z M491.053,299.662h-89.852
			v-10.317h89.852V299.662z"/>
	</g>
</g>
    <g>
	<g>
		<path d="M55.374,0.025C24.84,0.025,0,24.866,0,55.399v56.503c0,5.77,4.679,10.448,10.448,10.448h34.478v29.292
			c-9.807,4.102-16.717,13.794-16.717,25.072v68.128c0,14.978,12.185,27.165,27.165,27.165c14.979,0,27.165-12.186,27.165-27.165
			v-68.128c0-11.277-6.909-20.97-16.717-25.072V122.35H100.3c5.769,0,10.448-4.678,10.448-10.448V55.399
			C110.748,24.866,85.908,0.025,55.374,0.025z M61.643,244.843c0,3.398-2.871,6.269-6.269,6.269c-3.398,0-6.269-2.871-6.269-6.269
			v-68.128c0-3.398,2.871-6.269,6.269-6.269c3.398,0,6.269,2.871,6.269,6.269V244.843z M89.852,101.454h-24.03V85.927
			c0-5.77-4.679-10.448-10.448-10.448s-10.448,4.678-10.448,10.448v15.527h-24.03V55.399c0-19.011,15.467-34.478,34.478-34.478
			c19.011,0,34.478,15.467,34.478,34.478V101.454z"/>
	</g>
</g>
    <g>
	<g>
		<path d="M292.73,464.611h-0.137c-5.769,0-10.448,4.678-10.448,10.448c0,5.77,4.679,10.448,10.448,10.448h0.137
			c5.769,0,10.448-4.677,10.448-10.448C303.178,469.288,298.5,464.611,292.73,464.611z"/>
	</g>
</g>
    <g>
	<g>
		<path d="M258.793,464.61h-39.199c-5.769,0-10.448,4.677-10.448,10.448c0,5.77,4.679,10.448,10.448,10.448h39.198
			c5.77,0,10.449-4.678,10.449-10.448C269.241,469.287,264.563,464.61,258.793,464.61z"/>
	</g>
</g>
    <g>
</g>
    <g>
</g>
    <g>
</g>
    <g>
</g>
    <g>
</g>
    <g>
</g>
    <g>
</g>
    <g>
</g>
    <g>
</g>
    <g>
</g>
    <g>
</g>
    <g>
</g>
    <g>
</g>
    <g>
</g>
    <g>
</g>
</svg>
